<svg xmlns="http://www.w3.org/2000/svg" version="1.1" xmlns:xlink="http://www.w3.org/1999/xlink" xmlns:svgjs="http://svgjs.dev/svgjs" viewBox="0 0 7.6081386427116655 7.815216751259805"><g transform="matrix(1,0,0,1,0.6425702979183328,6.368447234591472)"><g><path d=" M 0.0732421875 0.024169921875 L 0.31494140625 0.024169921875 L 0.31494140625 0.11279296875 L 0.31640625 0.11279296875 Q 0.34130859375 0.091552734375 0.3687744140625 0.0728759765625 Q 0.396240234375 0.05419921875 0.42626953125 0.040283203125 Q 0.456298828125 0.0263671875 0.4888916015625 0.018310546875 Q 0.521484375 0.01025390625 0.556640625 0.01025390625 Q 0.638671875 0.01025390625 0.697998046875 0.0406494140625 Q 0.75732421875 0.071044921875 0.78955078125 0.135498046875 Q 0.8173828125 0.110595703125 0.84814453125 0.0875244140625 Q 0.87890625 0.064453125 0.9122314453125 0.047607421875 Q 0.945556640625 0.03076171875 0.982177734375 0.0205078125 Q 1.018798828125 0.01025390625 1.058349609375 0.01025390625 Q 1.119873046875 0.01025390625 1.1689453125 0.027099609375 Q 1.218017578125 0.0439453125 1.25244140625 0.078369140625 Q 1.286865234375 0.11279296875 1.3048095703125 0.1666259765625 Q 1.32275390625 0.220458984375 1.32275390625 0.293701171875 L 1.32275390625 0.656982421875 L 1.42822265625 0.656982421875 L 1.42822265625 0.782958984375 L 1.07373046875 0.782958984375 L 1.07373046875 0.656982421875 L 1.1806640625 0.656982421875 L 1.1806640625 0.310546875 Q 1.1806640625 0.223388671875 1.13671875 0.1783447265625 Q 1.0927734375 0.13330078125 1.010009765625 0.13330078125 Q 0.9609375 0.13330078125 0.90966796875 0.15673828125 Q 0.8583984375 0.18017578125 0.82177734375 0.216064453125 L 0.82177734375 0.656982421875 L 0.926513671875 0.656982421875 L 0.926513671875 0.782958984375 L 0.57275390625 0.782958984375 L 0.57275390625 0.656982421875 L 0.6796875 0.656982421875 L 0.6796875 0.310546875 Q 0.6796875 0.223388671875 0.6353759765625 0.1783447265625 Q 0.591064453125 0.13330078125 0.50830078125 0.13330078125 Q 0.460693359375 0.13330078125 0.412353515625 0.156005859375 Q 0.364013671875 0.1787109375 0.32080078125 0.21240234375 L 0.32080078125 0.656982421875 L 0.427734375 0.656982421875 L 0.427734375 0.782958984375 L 0.0732421875 0.782958984375 L 0.0732421875 0.656982421875 L 0.1787109375 0.656982421875 L 0.1787109375 0.150146484375 L 0.0732421875 0.150146484375 L 0.0732421875 0.024169921875 M 2.020751953125 0.712646484375 Q 1.9775390625 0.7529296875 1.9251708984375 0.778564453125 Q 1.872802734375 0.80419921875 1.80615234375 0.80419921875 Q 1.75048828125 0.80419921875 1.7039794921875 0.78662109375 Q 1.657470703125 0.76904296875 1.623779296875 0.7386474609375 Q 1.590087890625 0.708251953125 1.5714111328125 0.66796875 Q 1.552734375 0.627685546875 1.552734375 0.582275390625 Q 1.552734375 0.533935546875 1.5670166015625 0.49658203125 Q 1.581298828125 0.459228515625 1.6051025390625 0.4317626953125 Q 1.62890625 0.404296875 1.6607666015625 0.3856201171875 Q 1.692626953125 0.366943359375 1.7274169921875 0.3555908203125 Q 1.76220703125 0.34423828125 1.7984619140625 0.3394775390625 Q 1.834716796875 0.334716796875 1.86767578125 0.334716796875 Q 1.92041015625 0.334716796875 1.956298828125 0.3380126953125 Q 1.9921875 0.34130859375 2.021484375 0.34716796875 L 2.022216796875 0.284912109375 Q 2.022216796875 0.24462890625 2.010498046875 0.2149658203125 Q 1.998779296875 0.185302734375 1.9775390625 0.1658935546875 Q 1.956298828125 0.146484375 1.9266357421875 0.136962890625 Q 1.89697265625 0.12744140625 1.8603515625 0.12744140625 Q 1.825927734375 0.12744140625 1.79443359375 0.1322021484375 Q 1.762939453125 0.136962890625 1.7354736328125 0.1446533203125 Q 1.7080078125 0.15234375 1.6849365234375 0.1622314453125 Q 1.661865234375 0.172119140625 1.645751953125 0.18310546875 L 1.60107421875 0.088623046875 Q 1.628173828125 0.071044921875 1.660400390625 0.0560302734375 Q 1.692626953125 0.041015625 1.7281494140625 0.0303955078125 Q 1.763671875 0.019775390625 1.8006591796875 0.0135498046875 Q 1.837646484375 0.00732421875 1.87353515625 0.00732421875 Q 1.939453125 0.00732421875 1.9921875 0.0230712890625 Q 2.044921875 0.038818359375 2.08154296875 0.07177734375 Q 2.1181640625 0.104736328125 2.137939453125 0.1556396484375 Q 2.15771484375 0.20654296875 2.15771484375 0.277587890625 L 2.156982421875 0.656982421875 L 2.2412109375 0.656982421875 L 2.2412109375 0.782958984375 L 2.020751953125 0.782958984375 L 2.020751953125 0.712646484375 M 1.836181640625 0.68994140625 Q 1.86328125 0.68994140625 1.890380859375 0.683349609375 Q 1.91748046875 0.6767578125 1.941650390625 0.6654052734375 Q 1.9658203125 0.654052734375 1.986328125 0.6390380859375 Q 2.0068359375 0.6240234375 2.020751953125 0.60791015625 L 2.021484375 0.4365234375 L 1.86328125 0.4365234375 Q 1.82373046875 0.4365234375 1.7911376953125 0.4453125 Q 1.758544921875 0.4541015625 1.7347412109375 0.470947265625 Q 1.7109375 0.48779296875 1.69775390625 0.5126953125 Q 1.6845703125 0.53759765625 1.6845703125 0.56982421875 Q 1.6845703125 0.599853515625 1.695556640625 0.6221923828125 Q 1.70654296875 0.64453125 1.7266845703125 0.6595458984375 Q 1.746826171875 0.674560546875 1.774658203125 0.6822509765625 Q 1.802490234375 0.68994140625 1.836181640625 0.68994140625 M 2.830078125 0.656982421875 L 2.873291015625 0.656982421875 L 2.722412109375 0.469482421875 L 2.5751953125 0.656982421875 L 2.612548828125 0.656982421875 L 2.612548828125 0.782958984375 L 2.360595703125 0.782958984375 L 2.360595703125 0.656982421875 L 2.422119140625 0.656982421875 L 2.65283203125 0.38818359375 L 2.43603515625 0.150146484375 L 2.359130859375 0.150146484375 L 2.359130859375 0.024169921875 L 2.611083984375 0.024169921875 L 2.611083984375 0.150146484375 L 2.58251953125 0.150146484375 L 2.722412109375 0.330322265625 L 2.86376953125 0.150146484375 L 2.8271484375 0.150146484375 L 2.8271484375 0.024169921875 L 3.0791015625 0.024169921875 L 3.0791015625 0.150146484375 L 3.013916015625 0.150146484375 L 2.79931640625 0.397705078125 L 3.0263671875 0.656982421875 L 3.08203125 0.656982421875 L 3.08203125 0.782958984375 L 2.830078125 0.782958984375 L 2.830078125 0.656982421875 M 3.7412109375 0.226318359375 Q 3.71044921875 0.17138671875 3.6632080078125 0.145751953125 Q 3.615966796875 0.1201171875 3.5537109375 0.1201171875 Q 3.506103515625 0.1201171875 3.46435546875 0.139892578125 Q 3.422607421875 0.15966796875 3.3914794921875 0.1962890625 Q 3.3603515625 0.23291015625 3.3424072265625 0.2852783203125 Q 3.324462890625 0.337646484375 3.324462890625 0.402099609375 Q 3.324462890625 0.4658203125 3.3424072265625 0.51708984375 Q 3.3603515625 0.568359375 3.391845703125 0.6046142578125 Q 3.42333984375 0.640869140625 3.4647216796875 0.6602783203125 Q 3.506103515625 0.6796875 3.5537109375 0.6796875 Q 3.6240234375 0.6796875 3.676025390625 0.6456298828125 Q 3.72802734375 0.611572265625 3.7587890625 0.545654296875 L 3.87158203125 0.601318359375 Q 3.849609375 0.648193359375 3.8173828125 0.685546875 Q 3.78515625 0.722900390625 3.7445068359375 0.749267578125 Q 3.703857421875 0.775634765625 3.6551513671875 0.7899169921875 Q 3.6064453125 0.80419921875 3.55224609375 0.80419921875 Q 3.47314453125 0.80419921875 3.4061279296875 0.7745361328125 Q 3.339111328125 0.744873046875 3.2904052734375 0.69140625 Q 3.24169921875 0.637939453125 3.214599609375 0.56396484375 Q 3.1875 0.489990234375 3.1875 0.402099609375 Q 3.1875 0.314208984375 3.216064453125 0.240234375 Q 3.24462890625 0.166259765625 3.29443359375 0.1131591796875 Q 3.34423828125 0.06005859375 3.410888671875 0.030029296875 Q 3.4775390625 0 3.5537109375 0 Q 3.62548828125 0 3.6895751953125 0.02490234375 Q 3.753662109375 0.0498046875 3.802001953125 0.100341796875 L 3.87890625 0.100341796875 L 3.87890625 0.226318359375 L 3.7412109375 0.226318359375 M 4.458251953125 0.712646484375 Q 4.4150390625 0.7529296875 4.3626708984375 0.778564453125 Q 4.310302734375 0.80419921875 4.24365234375 0.80419921875 Q 4.18798828125 0.80419921875 4.1414794921875 0.78662109375 Q 4.094970703125 0.76904296875 4.061279296875 0.7386474609375 Q 4.027587890625 0.708251953125 4.0089111328125 0.66796875 Q 3.990234375 0.627685546875 3.990234375 0.582275390625 Q 3.990234375 0.533935546875 4.0045166015625 0.49658203125 Q 4.018798828125 0.459228515625 4.0426025390625 0.4317626953125 Q 4.06640625 0.404296875 4.0982666015625 0.3856201171875 Q 4.130126953125 0.366943359375 4.1649169921875 0.3555908203125 Q 4.19970703125 0.34423828125 4.2359619140625 0.3394775390625 Q 4.272216796875 0.334716796875 4.30517578125 0.334716796875 Q 4.35791015625 0.334716796875 4.393798828125 0.3380126953125 Q 4.4296875 0.34130859375 4.458984375 0.34716796875 L 4.459716796875 0.284912109375 Q 4.459716796875 0.24462890625 4.447998046875 0.2149658203125 Q 4.436279296875 0.185302734375 4.4150390625 0.1658935546875 Q 4.393798828125 0.146484375 4.3641357421875 0.136962890625 Q 4.33447265625 0.12744140625 4.2978515625 0.12744140625 Q 4.263427734375 0.12744140625 4.23193359375 0.1322021484375 Q 4.200439453125 0.136962890625 4.1729736328125 0.1446533203125 Q 4.1455078125 0.15234375 4.1224365234375 0.1622314453125 Q 4.099365234375 0.172119140625 4.083251953125 0.18310546875 L 4.03857421875 0.088623046875 Q 4.065673828125 0.071044921875 4.097900390625 0.0560302734375 Q 4.130126953125 0.041015625 4.1656494140625 0.0303955078125 Q 4.201171875 0.019775390625 4.2381591796875 0.0135498046875 Q 4.275146484375 0.00732421875 4.31103515625 0.00732421875 Q 4.376953125 0.00732421875 4.4296875 0.0230712890625 Q 4.482421875 0.038818359375 4.51904296875 0.07177734375 Q 4.5556640625 0.104736328125 4.575439453125 0.1556396484375 Q 4.59521484375 0.20654296875 4.59521484375 0.277587890625 L 4.594482421875 0.656982421875 L 4.6787109375 0.656982421875 L 4.6787109375 0.782958984375 L 4.458251953125 0.782958984375 L 4.458251953125 0.712646484375 M 4.273681640625 0.68994140625 Q 4.30078125 0.68994140625 4.327880859375 0.683349609375 Q 4.35498046875 0.6767578125 4.379150390625 0.6654052734375 Q 4.4033203125 0.654052734375 4.423828125 0.6390380859375 Q 4.4443359375 0.6240234375 4.458251953125 0.60791015625 L 4.458984375 0.4365234375 L 4.30078125 0.4365234375 Q 4.26123046875 0.4365234375 4.2286376953125 0.4453125 Q 4.196044921875 0.4541015625 4.1722412109375 0.470947265625 Q 4.1484375 0.48779296875 4.13525390625 0.5126953125 Q 4.1220703125 0.53759765625 4.1220703125 0.56982421875 Q 4.1220703125 0.599853515625 4.133056640625 0.6221923828125 Q 4.14404296875 0.64453125 4.1641845703125 0.6595458984375 Q 4.184326171875 0.674560546875 4.212158203125 0.6822509765625 Q 4.239990234375 0.68994140625 4.273681640625 0.68994140625 M 5.378173828125 0.1845703125 L 5.239013671875 0.1845703125 L 5.239013671875 0.1376953125 Q 5.21484375 0.1376953125 5.1895751953125 0.1468505859375 Q 5.164306640625 0.156005859375 5.142333984375 0.1746826171875 Q 5.120361328125 0.193359375 5.1038818359375 0.2222900390625 Q 5.08740234375 0.251220703125 5.080078125 0.290771484375 L 5.080078125 0.656982421875 L 5.208984375 0.656982421875 L 5.208984375 0.782958984375 L 4.83251953125 0.782958984375 L 4.83251953125 0.656982421875 L 4.937255859375 0.656982421875 L 4.93798828125 0.150146484375 L 4.83251953125 0.150146484375 L 4.83251953125 0.024169921875 L 5.074951171875 0.024169921875 L 5.074951171875 0.12890625 Q 5.088134765625 0.10546875 5.1046142578125 0.0853271484375 Q 5.12109375 0.065185546875 5.1412353515625 0.0501708984375 Q 5.161376953125 0.03515625 5.1859130859375 0.0267333984375 Q 5.21044921875 0.018310546875 5.239013671875 0.018310546875 Q 5.277099609375 0.018310546875 5.310791015625 0.018310546875 Q 5.344482421875 0.018310546875 5.378173828125 0.019775390625 L 5.378173828125 0.1845703125 M 5.66455078125 0.421142578125 Q 5.66455078125 0.453369140625 5.6693115234375 0.4801025390625 Q 5.674072265625 0.5068359375 5.682861328125 0.531005859375 Q 5.7099609375 0.604248046875 5.7696533203125 0.6412353515625 Q 5.829345703125 0.67822265625 5.90478515625 0.67822265625 Q 5.964111328125 0.67822265625 6.0201416015625 0.6617431640625 Q 6.076171875 0.645263671875 6.1376953125 0.610107421875 L 6.192626953125 0.703125 Q 6.117919921875 0.75439453125 6.04248046875 0.779296875 Q 5.967041015625 0.80419921875 5.8857421875 0.80419921875 Q 5.808837890625 0.80419921875 5.7432861328125 0.778564453125 Q 5.677734375 0.7529296875 5.6304931640625 0.702392578125 Q 5.583251953125 0.65185546875 5.5565185546875 0.576416015625 Q 5.52978515625 0.5009765625 5.52978515625 0.400634765625 Q 5.52978515625 0.3193359375 5.552490234375 0.2471923828125 Q 5.5751953125 0.175048828125 5.6202392578125 0.1212158203125 Q 5.665283203125 0.0673828125 5.73193359375 0.035888671875 Q 5.798583984375 0.00439453125 5.88720703125 0.00439453125 Q 5.972900390625 0.00439453125 6.0303955078125 0.0303955078125 Q 6.087890625 0.056396484375 6.1241455078125 0.0992431640625 Q 6.160400390625 0.14208984375 6.1790771484375 0.197021484375 Q 6.19775390625 0.251953125 6.205078125 0.30908203125 Q 6.208740234375 0.3369140625 6.2098388671875 0.365478515625 Q 6.2109375 0.39404296875 6.2109375 0.421142578125 L 5.66455078125 0.421142578125 M 5.877685546875 0.11865234375 Q 5.830078125 0.11865234375 5.7945556640625 0.1322021484375 Q 5.759033203125 0.145751953125 5.734130859375 0.1710205078125 Q 5.709228515625 0.1962890625 5.6942138671875 0.23291015625 Q 5.67919921875 0.26953125 5.671875 0.31494140625 L 6.065185546875 0.31494140625 Q 6.062255859375 0.2724609375 6.0516357421875 0.236572265625 Q 6.041015625 0.20068359375 6.01904296875 0.17431640625 Q 5.9970703125 0.14794921875 5.962646484375 0.13330078125 Q 5.92822265625 0.11865234375 5.877685546875 0.11865234375" fill="#035b55" fill-rule="nonzero"></path></g><g></g><g clip-path="url(#SvgjsClipPath1003)"><g clip-path="url(#b32641c23-a168-4441-ac31-ee958d986634e84f5872-e7d9-4101-b645-c74801986d75)"><path d=" M 5.217222297031151 -2.2936438560828774 C 5.217200488200001 -2.379908683654448 5.147274477546054 -2.4498346943084335 5.061009649974441 -2.4498565031396295 C 4.974748019947681 -2.449834690291616 4.904827660677342 -2.379905488178319 4.9048167566666425 -2.2936438560828774 C 4.9048167566666425 -2.2152017188215765 4.962853271215547 -2.150863758343094 5.038233577382538 -2.139742397658603 L 5.038233577382538 -1.7046463222827768 L 2.213388209772929 -1.7046463222827768 C 2.1965013129766113 -1.7046354415616456 2.1828114386222257 -1.6909544050861198 2.1827896525788324 -1.674067518837676 L 2.1827896525788324 -1.1003001255131402 L 2.0891371285909646 -1.1003001255131402 L 2.0891371285909646 -1.8508635723477846 L 3.3112028102002213 -1.8500931761369586 L 3.311222563949217 -1.8500931761369586 C 3.3328628812886194 -1.8501040753167395 3.350403102776592 -1.867644296804713 3.3504140019563735 -1.889284614144116 L 3.3504140019563735 -2.9419223906186014 L 4.800260163233235 -2.9419223906186014 C 4.8219102721323495 -2.9419223906186014 4.839451601240391 -2.9594439659776475 4.839451601240391 -2.9811138286257584 L 4.839451601240391 -4.040290096017769 C 4.906634101574233 -4.057752410129829 4.956472810289987 -4.118277897052171 4.956472810289987 -4.1909124321087825 C 4.954815503285365 -4.275995147948645 4.885368895571213 -4.344102194434918 4.800270040107732 -4.344102194434918 C 4.715171184644252 -4.344102194434918 4.645724576930099 -4.275995147948645 4.644067269925477 -4.190912432108783 C 4.644067269925477 -4.118277897052171 4.693905978641233 -4.057752410129829 4.761088478975074 -4.040290096017769 L 4.761088478975074 -3.02028551288392 L 3.350414001956374 -3.02028551288392 L 3.350414001956374 -4.005286452797667 L 4.251678799878015 -4.005286452797667 C 4.273309155028135 -4.005286452797667 4.290850484136177 -4.022808028156713 4.290850484136177 -4.044477890804824 L 4.290850484136177 -5.063277495249944 C 4.29085572488255 -5.073669893989374 4.28673103369821 -5.083638440705294 4.279384349792378 -5.090988829444159 C 4.272037665886545 -5.098339218183024 4.262071199938856 -5.102468934578521 4.251678799878012 -5.102468933257101 L 3.585523122501325 -5.102468933257101 L 3.585523122501325 -5.422045084506993 C 3.6527056228351658 -5.439527152368049 3.7025443315509206 -5.500072393039387 3.7025443315509206 -5.572687174347003 C 3.700887024546299 -5.657769890186866 3.631440416832146 -5.7258769366731395 3.5463415613686653 -5.725876936673139 C 3.461242705905185 -5.725876936673139 3.391796098191032 -5.657769890186866 3.390138791186411 -5.572687174347003 C 3.390138791186411 -5.500072393039388 3.4399774999021653 -5.439527152368049 3.5071600002360066 -5.422045084506993 L 3.5071600002360066 -5.102468933257102 L 2.2728074867515224 -5.102468933257102 C 2.2624150866906776 -5.10246893457852 2.25244862074299 -5.098339218183022 2.245101936837158 -5.090988829444157 C 2.2377552529313265 -5.0836384407052915 2.233630561746986 -5.07366989398937 2.233635802493361 -5.063277495249944 L 2.233635802493361 -4.704529659741891 C 2.1664533021595194 -4.687047591880836 2.1166145934437655 -4.626502351209497 2.1166145934437655 -4.553887569901882 C 2.117577038515349 -4.468304336958834 2.1872287191601814 -4.399431535456733 2.27281736362602 -4.399431535456733 C 2.358406008091859 -4.399431535456733 2.4280576887366907 -4.468304336958834 2.429020133808274 -4.553887569901882 C 2.429020133808274 -4.626502351209497 2.3791814250925203 -4.687047591880836 2.3119989247586785 -4.704529659741891 L 2.3119989247586785 -5.0241058109917835 L 4.212487361870858 -5.0241058109917835 L 4.212487361870858 -4.083649575062985 L 3.311222563949217 -4.083649575062985 C 3.3008301652097907 -4.08365481580936 3.2908616184938704 -4.07953012462502 3.2835112297550046 -4.072183440719188 C 3.2761608410161394 -4.0648367568133565 3.2720311246206415 -4.054870290865669 3.27203112594206 -4.044477890804824 L 3.27203112594206 -1.9284958059002681 L 2.0499654443328037 -1.9292662021110942 L 2.049945690583808 -1.9292662021110942 C 2.0395482604791457 -1.9292766992721804 2.029573664653774 -1.9251509841956205 2.022221567572949 -1.9177988871147966 C 2.0148694704921244 -1.9104467900339719 2.010743755415565 -1.9004721942085996 2.0107542525766506 -1.8900747641039373 L 2.0107542525766506 -1.1003001255131402 L 1.9185239985164615 -1.1003001255131402 L 1.9185239985164615 -2.0723030985878204 L 3.117122226319013 -2.0723030985878204 C 3.138752581469132 -2.0723030985878204 3.156293910577174 -2.0898246739468664 3.156293910577174 -2.1114945365949764 L 3.156293910577174 -2.9629996407968457 C 3.156299151323548 -2.973392039536275 3.152174460139207 -2.983360586252196 3.1448277762333747 -2.9907109749910608 C 3.1374810923275427 -2.998061363729925 3.127514626379854 -3.0021910801254226 3.117122226319009 -3.0021910788040027 L 2.8401944191504978 -3.0021910788040027 L 2.8401944191504978 -3.43789952039869 C 2.9073769194843386 -3.4553420807617545 2.9572156282000934 -3.5158873214330937 2.9572156282000934 -3.5885218564897046 C 2.9562531831285095 -3.6741050894327536 2.8866015024836775 -3.742977890934853 2.8010128580178386 -3.742977890934853 C 2.7154242135519997 -3.742977890934853 2.6457725329071673 -3.6741050894327527 2.644810087835584 -3.5885218564897046 C 2.644810087835584 -3.5158873214330937 2.6946487965513386 -3.4553420807617545 2.7618312968851795 -3.43789952039869 L 2.7618312968851795 -3.0021910788040027 L 1.940964257375398 -3.0021910788040027 L 1.940964257375398 -3.43789952039869 C 2.0081467577092393 -3.4553420807617545 2.0579854664249937 -3.5158873214330937 2.0579854664249937 -3.5885218564897046 C 2.05702302135341 -3.6741050894327536 1.9873713407085778 -3.742977890934853 1.901782696242739 -3.742977890934853 C 1.8161940517768995 -3.742977890934853 1.7465423711320673 -3.6741050894327527 1.745579926060484 -3.5885218564897046 C 1.745579926060484 -3.5158873214330937 1.7954186347762384 -3.4553420807617545 1.8626011351100795 -3.43789952039869 L 1.8626011351100795 -2.9629996407968453 C 1.8626011351100795 -2.941349531897731 1.8801424642181215 -2.9238279565386844 1.9017728193682415 -2.9238279565386844 L 3.077930788311856 -2.9238279565386844 L 3.077930788311856 -2.150685974602134 L 1.879332560509305 -2.150685974602134 C 1.868938344889282 -2.150685974602134 1.8589698492800242 -2.1465568885243225 1.851620028929991 -2.13920706817429 C 1.8442702085799585 -2.131857247824257 1.8401411225021471 -2.121888752214999 1.8401411225021471 -2.1114945365949764 L 1.8401411225021471 -1.1003001255131402 L 1.7552395093193045 -1.1003001255131402 L 1.7552395093193045 -1.6706106127634568 C 1.7552447531146527 -1.6810064350493326 1.7511173509834084 -1.6909779776956464 1.7437663936138843 -1.6983289350651747 C 1.7364154362443611 -1.705679892434703 1.72644389359805 -1.7098072945659544 1.7160480713121606 -1.7098020507706133 L 1.3320746983367862 -1.7098020507706133 L 1.3320746983367862 -2.5993133680399065 L 1.4777981046769055 -2.5993133680399065 L 1.4777981046769055 -3.0953300053179866 L 1.3320746983367862 -3.0953300053179866 L 1.3320746983367862 -3.9985899318881777 C 1.4034647472066784 -4.013010168654924 1.4572344519725455 -4.076044381699702 1.4572344519725455 -4.151661732854639 C 1.4562719455617361 -4.237255832116571 1.3866114388287534 -4.3061374099832515 1.3010119280412948 -4.306137409983251 C 1.2154124172538368 -4.306137409983251 1.1457519105208533 -4.2372558321165705 1.1447894041100446 -4.151661732854638 C 1.1447894041100446 -4.0820100138963555 1.190716870524682 -4.023657439363522 1.2537115760714683 -4.003528369137063 L 1.2537115760714683 -3.095330005317987 L 1.1057757498438483 -3.095330005317987 L 1.1057757498438483 -2.5993133680399065 L 1.2537115760714683 -2.5993133680399065 L 1.2537115760714683 -1.6706106127634568 C 1.2537115760714683 -1.6489605038643411 1.2712529051795105 -1.631438928505295 1.2929030140786255 -1.631438928505295 L 1.676856633304991 -1.631438928505295 L 1.676856633304991 -1.099707513043274 C 1.639699831444375 -1.0967642044429375 1.6104840366799673 -1.0703731957848923 1.6104840366799673 -1.037838771189234 L 1.6104840366799673 -0.3123823393279235 C 1.6104840366799673 -0.2779318010796965 1.6432555062635725 -0.2499999999999991 1.6836124154614664 -0.2499999999999991 L 2.243591691987114 -0.2499999999999991 C 2.283968354934004 -0.2499999999999991 2.3167200707686137 -0.2779318010796965 2.3167200707686137 -0.3123823393279235 L 2.3167200707686137 -1.037838771189234 C 2.3167200707686137 -1.0722498019394688 2.2841658924239594 -1.1000630805251932 2.2439867669670255 -1.1002606180151489 L 2.2439867669670255 -1.6434887153925768 L 5.068832134576634 -1.6434887153925768 C 5.085721589967823 -1.6434887153925768 5.099410938021734 -1.6571978171954838 5.099410938021734 -1.6740675188376768 L 5.099410938021734 -2.142764721254921 C 5.167008267084482 -2.1599307291320478 5.217222297031151 -2.2207130147913334 5.217222297031151 -2.2936438560828774" fill="#035b55" transform="matrix(1,0,0,1,0,0)" fill-rule="nonzero"></path></g></g></g><defs><clipPath id="SvgjsClipPath1003"><path d=" M 1.1057757498438483 -5.7258769366731395 h 4.111446547187303 v 5.4758769366731395 h -4.111446547187303 Z"></path></clipPath><clipPath id="b32641c23-a168-4441-ac31-ee958d986634e84f5872-e7d9-4101-b645-c74801986d75"><path d=" M 1.0860220008483046 -5.7486535703992985 L 5.236976046026694 -5.7486535703992985 L 5.236976046026694 -0.2302462510044565 L 1.0860220008483046 -0.2302462510044565 Z"></path></clipPath></defs></svg>